<?xml version="1.0" ?><svg enable-background="new 0 0 24 24" id="Layer_1" version="1.1" viewBox="0 0 24 24" xml:space="preserve" xmlns="http://www.w3.org/2000/svg" xmlns:xlink="http://www.w3.org/1999/xlink"><g><path d="M20,15H1c-0.1328125,0-0.2597656,0.0527344-0.3535156,0.1464844   C0.5800781,15.2124023,0,15.8266602,0,16.9995117c0,1.1738281,0.5800781,1.7880859,0.6464844,1.8540039   C0.7402344,18.9472656,0.8671875,19,1,19h19c0.1328125,0,0.2597656-0.0527344,0.3535156-0.1464844   C20.4199219,18.7875977,21,18.1733398,21,16.9995117c0-1.1728516-0.5800781-1.7871094-0.6464844-1.8530273   C20.2597656,15.0527344,20.1328125,15,20,15z" fill="#303C42"/><path d="M5.5,16.9995117C5.5,16.4920044,5.6505127,16.1704102,5.755249,16h12.9182739   C18.5786743,16.2736816,18.5,16.5901489,18.5,16.9995117c0,0.4098511,0.0787354,0.7265625,0.173645,1.0004883H5.7561035   C5.6496582,17.8272705,5.5,17.5060425,5.5,16.9995117z" fill="#DFE1DF"/><path d="M1,16.9995117C1,16.5068359,1.1455078,16.1748047,1.2495117,16h3.4240112   C4.5786743,16.2736816,4.5,16.5901489,4.5,16.9995117C4.5,17.4093628,4.5787354,17.7260742,4.673645,18H1.2504883   C1.1445312,17.8232422,1,17.4916992,1,16.9995117z" fill="#FDB913"/><path d="M19.7526855,17.9938965C19.6463623,17.8195801,19.5,17.5007324,19.5,16.9995117   c0-0.5028687,0.147583-0.8223267,0.2522583-0.9942017C19.8579712,16.1831665,20,16.5123291,20,16.9995117   C20,17.4870605,19.8583984,17.815918,19.7526855,17.9938965z" fill="#DFE1DF"/><path d="M22,8h-7c-0.5512695,0-1-0.4487305-1-1s0.4487305-1,1-1h6.5C21.7763672,6,22,5.7763672,22,5.5   S21.7763672,5,21.5,5H15c-1.1030273,0-2,0.8969727-2,2s0.8969727,2,2,2h7c0.5512695,0,1,0.4487305,1,1s-0.4487305,1-1,1h-1   c-1.1030273,0-2,0.8969727-2,2v0.5c0,0.2763672,0.2236328,0.5,0.5,0.5s0.5-0.2236328,0.5-0.5V13c0-0.5512695,0.4487305-1,1-1h1   c1.1030273,0,2-0.8969727,2-2S23.1030273,8,22,8z" fill="#303C42"/><linearGradient gradientUnits="userSpaceOnUse" id="SVGID_1_" x1="3.6547365" x2="21.4434223" y1="8.4581614" y2="16.7531624"><stop offset="0" style="stop-color:#FFFFFF;stop-opacity:0.2"/><stop offset="1" style="stop-color:#FFFFFF;stop-opacity:0"/></linearGradient><path d="M20,15H1c-0.1328125,0-0.2597656,0.0527344-0.3535156,0.1464844   C0.5800781,15.2124023,0,15.8266602,0,16.9995117c0,1.1738281,0.5800781,1.7880859,0.6464844,1.8540039   C0.7402344,18.9472656,0.8671875,19,1,19h19c0.1328125,0,0.2597656-0.0527344,0.3535156-0.1464844   C20.4199219,18.7875977,21,18.1733398,21,16.9995117c0-1.1728516-0.5800781-1.7871094-0.6464844-1.8530273   C20.2597656,15.0527344,20.1328125,15,20,15z M22,8h-7c-0.5512695,0-1-0.4487305-1-1s0.4487305-1,1-1h6.5   C21.7763672,6,22,5.7763672,22,5.5S21.7763672,5,21.5,5H15c-1.1030273,0-2,0.8969727-2,2s0.8969727,2,2,2h7   c0.5512695,0,1,0.4487305,1,1s-0.4487305,1-1,1h-1c-1.1030273,0-2,0.8969727-2,2v0.5c0,0.2763672,0.2236328,0.5,0.5,0.5   s0.5-0.2236328,0.5-0.5V13c0-0.5512695,0.4487305-1,1-1h1c1.1030273,0,2-0.8969727,2-2S23.1030273,8,22,8z" fill="url(#SVGID_1_)"/></g><g/><g/><g/><g/><g/><g/><g/><g/><g/><g/><g/><g/><g/><g/><g/></svg>